# xmcd CD database file
#
# Track frame offsets:
#	150
#	18183
#	36708
#	56233
#	71990
#	89969
#	107140
#	126487
#
# Disc length: 1957 seconds
#
# Revision: 5
# Processed by: cddbd v1.5.2PL0 Copyright (c) Steve Scherf et al.
# Submitted via: CDex 1.70beta2
#
DISCID=8207a308
DTITLE=岸田教団&The明星ロケッツ - Electric blue
DYEAR=2008
DGENRE=Rock and Roll
TTITLE0=SPEED GRAPHER
TTITLE1=フォールオブフォール
TTITLE2=メイドと血の懐中時計
TTITLE3=緋色のDance
TTITLE4=完全なる墨染の桜
TTITLE5=芥川龍之介の河童
TTITLE6=妖々跋扈
TTITLE7=彼岸帰航
EXTD=YEAR: 2008
EXTT0=
EXTT1=
EXTT2=
EXTT3=
EXTT4=
EXTT5=
EXTT6=
EXTT7=
PLAYORDER=
